<?xml version="1.0" ?><!DOCTYPE svg  PUBLIC '-//W3C//DTD SVG 1.1//EN'  'http://www.w3.org/Graphics/SVG/1.1/DTD/svg11.dtd'><svg enable-background="new 0 0 512 512" id="Layer_1" version="1.1" viewBox="0 0 512 512" xml:space="preserve" xmlns="http://www.w3.org/2000/svg" xmlns:xlink="http://www.w3.org/1999/xlink"><g><path d="M92.2,263.7c0-71,0-142,0-212.9C92.2,23.6,110.8,5,138.1,5C228.4,5,318.7,5,409,5.1c5.7,0,11.7,0.9,17.2,2.4   c14.9,4.2,23.9,16.2,23.5,34.3c-0.3,14-2.4,28.1-5,41.9c-5.7,30.4-12.1,60.7-18.4,90.9c-7.5,36.2-15.1,72.3-22.7,108.5   c-2.3,10.7-4.4,21.5-7.3,32.1c-5.8,20.8-19.5,30.9-41,30.9c-25.2,0-50.3,0.2-75.5-0.1c-5.8-0.1-9.6,1.8-13.2,6.2   c-13.5,16.3-27.2,32.4-40.9,48.5c-23.8,28.1-47.6,56.1-71.5,84.1c-4.5,5.3-8.8,10.9-13.6,15.9c-12.5,13.2-34.2,12.1-43.5-3.1   c-3.5-5.7-4.7-13.6-4.8-20.5c-0.4-37.2-0.2-74.3-0.2-111.5C92.2,331.7,92.2,297.7,92.2,263.7z M149.1,412.3c1-0.6,1.5-0.8,1.8-1.1   c14.7-18.8,29.3-37.6,43.9-56.3c14.4-18.5,29-37,43.3-55.5c5.4-7,12.4-9.9,21.2-9.8c24.5,0.3,49,0.1,73.5,0   c8.9,0,14.8-4.4,16.5-12.3c3.9-19.1,7.7-38.2,11.4-57.3c2.3-12.1-4.1-19.8-16.3-19.9c-28.3,0-56.7,0-85,0   c-13.6,0-20.7-7.1-20.7-20.6c0-3.7,0.1-7.3,0-11c-0.2-6.8,3.1-11.8,9-14.3c4.3-1.8,9.3-2.8,14-2.8c32.5-0.2,65-0.4,97.5,0   c13,0.2,17.7-7.4,19.5-15.9c3.9-18.2,7.4-36.5,11-54.8c2.4-12.3-3.1-18.8-15.7-18.8c-69.7,0-139.3,0-209,0c-12.3,0-16,3.8-16,16.2   c0,109.7,0,219.3,0,329C149.1,408.6,149.1,410.2,149.1,412.3z"/></g></svg>