<svg width="13" height="19" viewBox="0 0 13 19" fill="none" xmlns="http://www.w3.org/2000/svg">
<path id="foursquare" d="M10.636 3.04295L10.2091 5.10425C10.1603 5.32369 9.95286 5.52197 9.69666 5.52197H5.98898C5.7887 5.52299 5.59691 5.60301 5.45529 5.74463C5.31367 5.88625 5.23365 6.07804 5.23263 6.27832V6.72946C5.23365 6.92974 5.31367 7.12152 5.45529 7.26315C5.59691 7.40477 5.7887 7.48478 5.98898 7.48581H9.12355C9.41595 7.48581 9.66018 7.76624 9.59919 8.07117L9.17228 10.1692C9.14777 10.3522 8.95284 10.587 8.65988 10.587H6.0987C5.56207 10.5992 5.45263 10.6115 5.13516 11.0047L2.01257 14.8987C1.98807 14.9349 1.96384 14.9232 1.96384 14.8864V2.94771C1.96457 2.81203 2.01879 2.68213 2.11473 2.58619C2.21066 2.49025 2.34057 2.43603 2.47624 2.4353H10.1701C10.4385 2.4353 10.7067 2.70376 10.6335 3.04796M11.1971 0.469238H1.69538C0.390428 0.469238 0 1.45728 0 2.07941V17.1797C0 17.9238 0.378175 18.1432 0.585364 18.2287C0.792553 18.3142 1.34171 18.3752 1.73186 17.9848L6.31842 12.6424C6.39166 12.5569 6.42814 12.5569 6.47716 12.5569H9.33157C10.5513 12.5569 10.783 11.7154 10.9172 11.203C11.027 10.7758 12.2837 4.67706 12.6764 2.74999C12.966 1.26207 12.5873 0.469238 11.1971 0.469238Z" fill="url(#paint0_linear_79_1273)"/>
<defs>
<linearGradient id="paint0_linear_79_1273" x1="6.38364" y1="0.469238" x2="6.38364" y2="18.2922" gradientUnits="userSpaceOnUse">
<stop stop-color="#FFF5C1"/>
<stop offset="1" stop-color="#FFA34E"/>
</linearGradient>
</defs>
</svg>
