<svg width="18" height="19" viewBox="0 0 18 19" fill="none" xmlns="http://www.w3.org/2000/svg">
<g id="insta">
<path id="Vector" d="M8.9115 4.92236C6.39615 4.92236 4.31201 6.97057 4.31201 9.52185C4.31201 12.0731 6.36022 14.1213 8.9115 14.1213C11.4628 14.1213 13.511 12.0372 13.511 9.52185C13.511 7.0065 11.4268 4.92236 8.9115 4.92236ZM8.9115 12.4684C7.29449 12.4684 5.96495 11.1389 5.96495 9.52185C5.96495 7.90484 7.29449 6.5753 8.9115 6.5753C10.5285 6.5753 11.858 7.90484 11.858 9.52185C11.858 11.1389 10.5285 12.4684 8.9115 12.4684Z" fill="url(#paint0_linear_79_1269)"/>
<path id="Vector_2" d="M13.6908 5.8566C14.2663 5.8566 14.7328 5.39005 14.7328 4.81453C14.7328 4.23901 14.2663 3.77246 13.6908 3.77246C13.1152 3.77246 12.6487 4.23901 12.6487 4.81453C12.6487 5.39005 13.1152 5.8566 13.6908 5.8566Z" fill="url(#paint1_linear_79_1269)"/>
<path id="Vector_3" d="M16.3857 2.11927C15.4514 1.14906 14.1219 0.645996 12.6126 0.645996H5.21035C2.08414 0.645996 0 2.73014 0 5.85635V13.2227C0 14.7678 0.503069 16.0974 1.50921 17.0676C2.47941 18.0019 3.77302 18.469 5.24629 18.469H12.5767C14.1219 18.469 15.4155 17.9659 16.3497 17.0676C17.3199 16.1333 17.823 14.8038 17.823 13.2586V5.85635C17.823 4.34714 17.3199 3.05354 16.3857 2.11927ZM16.2419 13.2586C16.2419 14.3726 15.8467 15.2709 15.1999 15.8818C14.5531 16.4927 13.6547 16.8161 12.5767 16.8161H5.24629C4.16828 16.8161 3.26995 16.4927 2.62314 15.8818C1.97634 15.235 1.65294 14.3366 1.65294 13.2227V5.85635C1.65294 4.77835 1.97634 3.88001 2.62314 3.23321C3.23401 2.62234 4.16828 2.29894 5.24629 2.29894H12.6486C13.7266 2.29894 14.6249 2.62234 15.2717 3.26914C15.8826 3.91594 16.2419 4.81428 16.2419 5.85635V13.2586Z" fill="url(#paint2_linear_79_1269)"/>
</g>
<defs>
<linearGradient id="paint0_linear_79_1269" x1="8.9115" y1="4.92236" x2="8.9115" y2="14.1213" gradientUnits="userSpaceOnUse">
<stop stop-color="#FFF5C1"/>
<stop offset="1" stop-color="#FFA34E"/>
</linearGradient>
<linearGradient id="paint1_linear_79_1269" x1="13.6908" y1="3.77246" x2="13.6908" y2="5.8566" gradientUnits="userSpaceOnUse">
<stop stop-color="#FFF5C1"/>
<stop offset="1" stop-color="#FFA34E"/>
</linearGradient>
<linearGradient id="paint2_linear_79_1269" x1="8.9115" y1="0.645996" x2="8.9115" y2="18.469" gradientUnits="userSpaceOnUse">
<stop stop-color="#FFF5C1"/>
<stop offset="1" stop-color="#FFA34E"/>
</linearGradient>
</defs>
</svg>
