<svg width="22" height="19" viewBox="0 0 22 19" fill="none" xmlns="http://www.w3.org/2000/svg">
<path id="twitter" fill-rule="evenodd" clip-rule="evenodd" d="M21.9406 2.93056C21.134 3.29127 20.265 3.531 19.3576 3.63783C20.2872 3.0811 20.9982 2.19888 21.3375 1.14847C20.4687 1.66235 19.503 2.03925 18.4798 2.24087C17.6571 1.36668 16.4885 0.823242 15.194 0.823242C12.7084 0.823242 10.6959 2.83683 10.6959 5.32092C10.6959 5.67149 10.7348 6.0145 10.811 6.34526C7.07089 6.15569 3.75513 4.36524 1.53552 1.64109C1.13735 2.32795 0.926655 3.10894 0.926655 3.90323V3.90375C0.926655 5.46349 1.71857 6.84301 2.92695 7.6475C2.1896 7.62558 1.49602 7.41995 0.88703 7.08675V7.14297C0.88703 9.32421 2.43742 11.1443 4.49755 11.5557C4.12012 11.6582 3.72169 11.7148 3.31122 11.7148C3.02048 11.7148 2.74034 11.6848 2.46178 11.6342C3.0372 13.4206 4.69811 14.7228 6.66503 14.7608C5.1228 15.969 3.18576 16.6885 1.0741 16.6885C0.709637 16.6885 0.354588 16.6662 0 16.6237C1.99615 17.9045 4.36083 18.6462 6.90114 18.6462C15.1774 18.6462 19.7071 11.7876 19.7071 5.84086C19.7071 5.64326 19.7026 5.45178 19.6945 5.25819C20.5735 4.62939 21.3356 3.83583 21.9388 2.93247L21.9409 2.93043L21.9405 2.93069L21.9406 2.93056Z" fill="url(#paint0_linear_79_1268)"/>
<defs>
<linearGradient id="paint0_linear_79_1268" x1="10.9704" y1="0.823242" x2="10.9704" y2="18.6462" gradientUnits="userSpaceOnUse">
<stop stop-color="#FFF5C1"/>
<stop offset="1" stop-color="#FFA34E"/>
</linearGradient>
</defs>
</svg>
