<svg width="14" height="18" viewBox="0 0 14 18" fill="none" xmlns="http://www.w3.org/2000/svg">
<path id="yelp" d="M0.34587 8.58107C0.0564671 9.04491 -0.0658441 10.5058 0.0346783 11.4754C0.0701018 11.7954 0.127982 12.0623 0.21233 12.2214C0.328092 12.4417 0.52272 12.5727 0.744485 12.5807C0.886713 12.5879 0.975205 12.5639 3.65095 11.7035C3.65095 11.7035 4.84011 11.324 4.84479 11.3216C5.14141 11.2461 5.34085 10.9734 5.36023 10.6253C5.37948 10.2684 5.19541 9.95323 4.89144 9.83907C4.89144 9.83907 4.0529 9.4974 4.0513 9.4974C1.17625 8.31158 1.04685 8.26493 0.902086 8.26332C0.680321 8.25437 0.483287 8.36625 0.345737 8.58093L0.34587 8.58107ZM6.88959 7.29312C6.83732 6.08872 6.47467 0.726144 6.43216 0.477645C6.37107 0.252539 6.19502 0.09173 5.94251 0.0282351C5.16667 -0.163854 2.20153 0.66666 1.6524 1.23344C1.47555 1.41764 1.41045 1.64435 1.46338 1.84539C1.55027 2.02304 5.22362 7.80295 5.22362 7.80295C5.76633 8.68333 6.20932 8.54658 6.3549 8.50073C6.49873 8.45648 6.93932 8.31973 6.88959 7.29312ZM9.93989 9.80244C12.979 9.0659 13.0963 9.0274 13.2161 8.94853C13.4003 8.82475 13.4927 8.61729 13.4766 8.36478C13.4766 8.35676 13.4782 8.34781 13.4766 8.33898C13.3986 7.59295 12.0914 5.65201 11.4473 5.33694C11.219 5.22747 10.9907 5.23482 10.801 5.36181C10.6836 5.43814 10.5976 5.55403 8.97035 7.77943C8.97035 7.77943 8.23555 8.78037 8.22673 8.79C8.03303 9.02553 8.02982 9.36319 8.21951 9.65273C8.41574 9.95269 8.74698 10.0989 9.05082 10.0146C9.05082 10.0146 9.03866 10.0362 9.03545 10.0404C9.18503 9.9841 9.45278 9.91807 9.93989 9.80244ZM11.3219 16.4385C11.9973 16.1692 13.4702 14.2951 13.5739 13.5739C13.61 13.323 13.5313 13.1069 13.3585 12.9685C13.2451 12.8833 13.159 12.8503 10.485 11.9724C10.485 11.9724 9.31202 11.5848 9.29665 11.5776C9.01286 11.4675 8.68884 11.5695 8.47095 11.838C8.24424 12.1138 8.21042 12.4781 8.39128 12.753L8.86328 13.5216C10.4504 16.0993 10.5718 16.2817 10.6859 16.371C10.8628 16.51 11.0879 16.5326 11.3218 16.4385H11.3219ZM6.77784 17.417C6.82449 17.2819 6.8301 17.1895 6.83812 14.3786C6.83812 14.3786 6.84454 13.1364 6.84534 13.1244C6.86459 12.8196 6.66769 12.5423 6.34527 12.4184C6.01323 12.2906 5.65552 12.3694 5.45447 12.6195C5.45447 12.6195 4.86764 13.3158 4.86591 13.3158C2.85198 15.6819 2.76763 15.7913 2.71844 15.9311C2.68863 16.013 2.6766 16.1015 2.68623 16.1892C2.69839 16.3146 2.75534 16.4384 2.84944 16.5542C3.31663 17.1089 5.55646 17.933 6.27202 17.8108C6.52038 17.7658 6.70138 17.6259 6.7777 17.4169L6.77784 17.417Z" fill="url(#paint0_linear_79_1267)"/>
<defs>
<linearGradient id="paint0_linear_79_1267" x1="6.79126" y1="0" x2="6.79126" y2="17.823" gradientUnits="userSpaceOnUse">
<stop stop-color="#FFF5C1"/>
<stop offset="1" stop-color="#FFA34E"/>
</linearGradient>
</defs>
</svg>
