<svg width="37" height="50" viewBox="0 0 37 50" fill="none" xmlns="http://www.w3.org/2000/svg">
<path id="foursquare" d="M30.1775 7.50215L28.9989 13.1931C28.8643 13.799 28.2915 14.3464 27.5842 14.3464H17.3478C16.7948 14.3492 16.2653 14.5702 15.8743 14.9612C15.4833 15.3522 15.2624 15.8817 15.2596 16.4346V17.6801C15.2624 18.2331 15.4833 18.7626 15.8743 19.1536C16.2653 19.5446 16.7948 19.7655 17.3478 19.7683H26.0019C26.8092 19.7683 27.4835 20.5425 27.3151 21.3844L26.1365 27.1769C26.0688 27.682 25.5306 28.3302 24.7218 28.3302H17.6507C16.1691 28.364 15.867 28.3978 14.9905 29.4834L6.36943 40.2342C6.30178 40.3342 6.23489 40.3019 6.23489 40.2004V7.23921C6.23691 6.86464 6.3866 6.50598 6.65147 6.24111C6.91634 5.97625 7.27499 5.82655 7.64956 5.82453H28.8912C29.6324 5.82453 30.3728 6.5657 30.1706 7.51599M31.7267 0.396484H5.49372C1.89091 0.396484 0.812988 3.12435 0.812988 4.84195V46.5318C0.812988 48.5862 1.85708 49.192 2.4291 49.4281C3.00112 49.6641 4.51729 49.8325 5.59444 48.7546L18.2573 34.005C18.4595 33.769 18.5603 33.769 18.6956 33.769H26.5762C29.9438 33.769 30.5835 31.4455 30.954 30.0309C31.257 28.8515 34.7268 12.0137 35.8108 6.69333C36.6104 2.58539 35.5648 0.396484 31.7267 0.396484Z" fill="url(#paint0_linear_69_1049)"/>
<defs>
<linearGradient id="paint0_linear_69_1049" x1="18.4374" y1="0.396484" x2="18.4374" y2="49.6035" gradientUnits="userSpaceOnUse">
<stop stop-color="#FFF5C1"/>
<stop offset="1" stop-color="#FFA34E"/>
</linearGradient>
</defs>
</svg>
