<svg width="50" height="50" viewBox="0 0 50 50" fill="none" xmlns="http://www.w3.org/2000/svg">
<g id="insta">
<path id="Vector" d="M25.2096 12.2021C18.265 12.2021 12.511 17.857 12.511 24.9007C12.511 31.9445 18.1658 37.5993 25.2096 37.5993C32.2533 37.5993 37.9081 31.8453 37.9081 24.9007C37.9081 17.9562 32.1541 12.2021 25.2096 12.2021ZM25.2096 33.0357C20.7452 33.0357 17.0745 29.3651 17.0745 24.9007C17.0745 20.4364 20.7452 16.7657 25.2096 16.7657C29.6739 16.7657 33.3446 20.4364 33.3446 24.9007C33.3446 29.3651 29.6739 33.0357 25.2096 33.0357Z" fill="url(#paint0_linear_74_1103)"/>
<path id="Vector_2" d="M38.4041 14.7819C39.9931 14.7819 41.2811 13.4938 41.2811 11.9049C41.2811 10.3159 39.9931 9.02783 38.4041 9.02783C36.8152 9.02783 35.5271 10.3159 35.5271 11.9049C35.5271 13.4938 36.8152 14.7819 38.4041 14.7819Z" fill="url(#paint1_linear_74_1103)"/>
<path id="Vector_3" d="M45.8446 4.464C43.2652 1.78539 39.5946 0.396484 35.4278 0.396484H14.9911C6.36 0.396484 0.605957 6.15053 0.605957 14.7816V35.1192C0.605957 39.3851 1.99486 43.0558 4.77268 45.7344C7.45128 48.3138 11.0228 49.6035 15.0903 49.6035H35.3286C39.5946 49.6035 43.166 48.2146 45.7454 45.7344C48.424 43.155 49.8129 39.4843 49.8129 35.2184V14.7816C49.8129 10.6149 48.424 7.04339 45.8446 4.464ZM45.4478 35.2184C45.4478 38.2938 44.3565 40.774 42.5708 42.4605C40.785 44.147 38.3049 45.0399 35.3286 45.0399H15.0903C12.114 45.0399 9.63385 44.147 7.84811 42.4605C6.06238 40.6748 5.16951 38.1946 5.16951 35.1192V14.7816C5.16951 11.8054 6.06238 9.32517 7.84811 7.53943C9.53464 5.8529 12.114 4.96003 15.0903 4.96003H35.527C38.5033 4.96003 40.9835 5.8529 42.7692 7.63864C44.4557 9.42438 45.4478 11.9046 45.4478 14.7816V35.2184Z" fill="url(#paint2_linear_74_1103)"/>
</g>
<defs>
<linearGradient id="paint0_linear_74_1103" x1="25.2096" y1="12.2021" x2="25.2096" y2="37.5993" gradientUnits="userSpaceOnUse">
<stop stop-color="#FFF5C1"/>
<stop offset="1" stop-color="#FFA34E"/>
</linearGradient>
<linearGradient id="paint1_linear_74_1103" x1="38.4041" y1="9.02783" x2="38.4041" y2="14.7819" gradientUnits="userSpaceOnUse">
<stop stop-color="#FFF5C1"/>
<stop offset="1" stop-color="#FFA34E"/>
</linearGradient>
<linearGradient id="paint2_linear_74_1103" x1="25.2094" y1="0.396484" x2="25.2094" y2="49.6035" gradientUnits="userSpaceOnUse">
<stop stop-color="#FFF5C1"/>
<stop offset="1" stop-color="#FFA34E"/>
</linearGradient>
</defs>
</svg>
