<svg width="61" height="50" viewBox="0 0 61 50" fill="none" xmlns="http://www.w3.org/2000/svg">
<path id="twitter" fill-rule="evenodd" clip-rule="evenodd" d="M60.605 6.21452C58.3781 7.21039 55.979 7.87225 53.4738 8.16719C56.0404 6.63013 58.0032 4.19443 58.9402 1.2944C56.5414 2.71316 53.8753 3.75374 51.0503 4.31037C48.7789 1.89683 45.5527 0.396484 41.9786 0.396484C35.1162 0.396484 29.56 5.95574 29.56 12.814C29.56 13.7819 29.6674 14.7289 29.8777 15.642C19.5518 15.1187 10.3975 10.1755 4.26939 2.65446C3.17012 4.5508 2.5884 6.70701 2.5884 8.89992V8.90138C2.5884 13.2076 4.77478 17.0163 8.11095 19.2374C6.07523 19.1769 4.16035 18.6091 2.479 17.6892V17.8444C2.479 23.8665 6.75943 28.8915 12.4472 30.0273C11.4051 30.3103 10.3051 30.4666 9.17188 30.4666C8.36919 30.4666 7.59575 30.3839 6.82667 30.2441C8.41535 35.176 13.0009 38.7714 18.4313 38.8762C14.1734 42.212 8.82551 44.1983 2.99547 44.1983C1.98924 44.1983 1.009 44.1367 0.0300293 44.0195C5.54113 47.5556 12.0697 49.6035 19.0832 49.6035C41.9328 49.6035 54.4386 30.6677 54.4386 14.2495C54.4386 13.7039 54.4265 13.1753 54.4039 12.6408C56.8307 10.9048 58.9348 8.71383 60.6003 6.21979L60.6059 6.21416L60.6049 6.21489L60.605 6.21452Z" fill="url(#paint0_linear_69_1035)"/>
<defs>
<linearGradient id="paint0_linear_69_1035" x1="30.318" y1="0.396484" x2="30.318" y2="49.6035" gradientUnits="userSpaceOnUse">
<stop stop-color="#FFF5C1"/>
<stop offset="1" stop-color="#FFA34E"/>
</linearGradient>
</defs>
</svg>
