<svg width="39" height="50" viewBox="0 0 39 50" fill="none" xmlns="http://www.w3.org/2000/svg">
<path id="yelp" d="M1.48542 24.0877C0.686416 25.3683 0.348731 29.4017 0.62626 32.0785C0.72406 32.962 0.88386 33.699 1.11673 34.1382C1.43634 34.7464 1.97368 35.108 2.58594 35.1302C2.97862 35.1501 3.22293 35.0837 10.6103 32.7085C10.6103 32.7085 13.8934 31.6607 13.9063 31.6541C14.7253 31.4455 15.2759 30.6927 15.3294 29.7317C15.3826 28.7463 14.8744 27.876 14.0351 27.5609C14.0351 27.5609 11.7201 26.6176 11.7156 26.6176C3.77799 23.3437 3.42075 23.2149 3.02106 23.2104C2.4088 23.1857 1.86481 23.4946 1.48505 24.0873L1.48542 24.0877ZM19.5518 20.5318C19.4075 17.2067 18.4062 2.40127 18.2889 1.7152C18.1202 1.09371 17.6342 0.649739 16.937 0.474438C14.795 -0.0558945 6.60864 2.23704 5.09257 3.80184C4.60431 4.3104 4.42458 4.93631 4.57072 5.49137C4.81061 5.98185 14.9522 21.9394 14.9522 21.9394C16.4506 24.37 17.6737 23.9925 18.0756 23.8659C18.4727 23.7437 19.6891 23.3662 19.5518 20.5318ZM27.9732 27.4597C36.3637 25.4263 36.6877 25.32 37.0184 25.1022C37.527 24.7605 37.782 24.1877 37.7377 23.4906C37.7377 23.4684 37.7421 23.4437 37.7377 23.4193C37.5222 21.3596 33.9132 16.001 32.1351 15.1311C31.5047 14.8288 30.8744 14.8491 30.3507 15.1997C30.0267 15.4105 29.789 15.7304 25.2965 21.8745C25.2965 21.8745 23.2678 24.638 23.2434 24.6645C22.7087 25.3148 22.6998 26.247 23.2235 27.0464C23.7653 27.8746 24.6798 28.2783 25.5187 28.0454C25.5187 28.0454 25.4851 28.1052 25.4762 28.1167C25.8892 27.9613 26.6284 27.779 27.9732 27.4597ZM31.7889 45.7811C33.6534 45.0375 37.72 39.8633 38.0064 37.8723C38.106 37.1796 37.8886 36.5828 37.4115 36.2008C37.0985 35.9657 36.8608 35.8746 29.4783 33.4506C29.4783 33.4506 26.2398 32.3807 26.1974 32.3608C25.4138 32.0567 24.5193 32.3383 23.9177 33.0797C23.2918 33.8411 23.1984 34.8468 23.6977 35.6059L25.0009 37.728C29.3827 44.8445 29.7178 45.3482 30.0329 45.5947C30.5212 45.9786 31.1427 46.0409 31.7885 45.7811H31.7889ZM19.2432 48.4826C19.372 48.1095 19.3875 47.8545 19.4097 40.094C19.4097 40.094 19.4274 36.6644 19.4296 36.6311C19.4828 35.7897 18.9391 35.0243 18.049 34.6822C17.1322 34.3293 16.1447 34.5467 15.5896 35.2372C15.5896 35.2372 13.9694 37.1596 13.9647 37.1596C8.40447 43.6923 8.17159 43.9942 8.03578 44.3802C7.95348 44.6064 7.92027 44.8507 7.94684 45.0928C7.98042 45.439 8.13764 45.7808 8.39745 46.1004C9.6873 47.6319 15.8712 49.9072 17.8467 49.5698C18.5324 49.4455 19.0321 49.0594 19.2429 48.4822L19.2432 48.4826Z" fill="url(#paint0_linear_69_1005)"/>
<defs>
<linearGradient id="paint0_linear_69_1005" x1="19.2803" y1="0.396484" x2="19.2803" y2="49.6035" gradientUnits="userSpaceOnUse">
<stop stop-color="#FFF5C1"/>
<stop offset="1" stop-color="#FFA34E"/>
</linearGradient>
</defs>
</svg>
